<?xml version="1.0" standalone="no"?>
<!DOCTYPE svg PUBLIC "-//W3C//DTD SVG 1.1//EN" "http://www.w3.org/Graphics/SVG/1.1/DTD/svg11.dtd" >
<!--
2013-9-30: Created.
-->
<svg>
<metadata>
Created by iconfont
</metadata>
<defs>

<font id="element-icons" horiz-adv-x="1024" >
  <font-face
    font-family="element-icons"
    font-weight="500"
    font-stretch="normal"
    units-per-em="1024"
    ascent="896"
    descent="-128"
  />
    <missing-glyph />
    
    <glyph glyph-name="iconfontzhuji" unicode="&#58924;" d="M754.243387 812 269.75559 812c-42.481227 0-76.918939-34.437323-76.918939-76.91681L192.836651 70.990213l0-149.211347 0-133.778866 638.325675 0L831.162326 735.084213C831.162326 777.562677 796.723591 812 754.243387 812zM511.999488-40.590072c-41.258326 0-74.704413 33.44574-74.704413 74.701352s33.446087 74.701352 74.704413 74.701352c41.257303 0 74.704413-33.44574 74.704413-74.701352S553.256791-40.590072 511.999488-40.590072zM750.439602 401.478206l-476.880227 0 0 79.817883 476.880227 0L750.439602 401.478206zM750.439602 552.927523l-476.880227 0 0 79.817883 476.880227 0L750.439602 552.927523z"  horiz-adv-x="1024" />

    
    <glyph glyph-name="restart" unicode="&#59219;" d="M772.431 659.252c-1.62 1.142-3.294 2.209-5.019 3.201-1.062 0.668-3.3 1.772-3.3 1.772-8.589 4.284-18.269 6.707-28.52 6.707-35.346 0-64-28.654-64-64 0-25.015 15.241-46.015 35.065-57.615 94.837-63.064 157.343-170.889 157.343-293.317 0-194.405-157.596-352-352-352s-352 157.595-352 352c0 122.428 62.505 230.253 157.342 293.316 20.492 11.767 34.953 32.636 34.953 57.615 0 35.346-28.654 64-64 64-10.214 0-19.863-2.405-28.43-6.661 0 0-1.426-0.655-2.094-1.074-2.636-1.433-5.156-3.049-7.551-4.826-131.369-85.641-218.22-233.855-218.22-402.37 0-265.097 214.903-480 480-480s480 214.903 480 480c0 169.092-87.445 317.747-219.569 403.252zM512 160c35.347 0 64 28.654 64 64v512c0 35.346-28.653 64-64 64-35.346 0-64-28.654-64-64v-512c0-35.346 28.654-64 64-64z"  horiz-adv-x="1024" />

    
    <glyph glyph-name="log-out" unicode="&#59208;" d="M972.8 288l-307.2 256v-153.6h-358.4v-204.8h358.4v-153.6l307.2 256zM153.6 646.4h409.6v102.4h-409.6c-56.32 0-102.4-46.080-102.4-102.4v-716.8c0-56.32 46.080-102.4 102.4-102.4h409.6v102.4h-409.6v716.8z"  horiz-adv-x="1024" />

    
    <glyph glyph-name="upload" unicode="&#59363;" d="M767.953408 54.84544q0 14.856192-10.856448 25.71264t-25.71264 10.856448-25.71264-10.856448-10.856448-25.71264 10.856448-25.71264 25.71264-10.856448 25.71264 10.856448 10.856448 25.71264zm146.276352 0q0 14.856192-10.856448 25.71264t-25.71264 10.856448-25.71264-10.856448-10.856448-25.71264 10.856448-25.71264 25.71264-10.856448 25.71264 10.856448 10.856448 25.71264zm73.138176 127.991808l0-182.84544q0-22.85568-15.998976-38.854656t-38.854656-15.998976l-841.089024 0q-22.85568 0-38.854656 15.998976t-15.998976 38.854656l0 182.84544q0 22.85568 15.998976 38.854656t38.854656 15.998976l243.984384 0q11.999232-31.997952 40.283136-52.568064t63.138816-20.570112l146.276352 0q34.854912 0 63.138816 20.570112t40.283136 52.568064l243.984384 0q22.85568 0 38.854656-15.998976t15.998976-38.854656zm-185.7024 370.262016q-9.713664-22.85568-33.712128-22.85568l-146.276352 0 0-255.983616q0-14.856192-10.856448-25.71264t-25.71264-10.856448l-146.276352 0q-14.856192 0-25.71264 10.856448t-10.856448 25.71264l0 255.983616-146.276352 0q-23.998464 0-33.712128 22.85568-9.713664 22.284288 7.999488 39.426048l255.983616 255.983616q10.285056 10.856448 25.71264 10.856448t25.71264-10.856448l255.983616-255.983616q17.713152-17.14176 7.999488-39.426048z"  horiz-adv-x="1024" />

    
    <glyph glyph-name="yunxingzhong" unicode="&#58932;" d="M512-128c-281.6 0-512 230.4-512 512s230.4 512 512 512 512-230.4 512-512-230.4-512-512-512v0zM512 844.8c-256 0-460.8-204.8-460.8-460.8s204.8-460.8 460.8-460.8 460.8 204.8 460.8 460.8-204.8 460.8-460.8 460.8v0zM806.4 416c0 0-422.4 236.8-428.8 236.8-38.4 12.8-51.2-19.2-51.2-44.8v0c0 0 0-467.2 6.4-467.2 12.8-32 44.8-32 70.4-19.2v0c0 0 390.4 224 396.8 230.4 19.2 12.8 38.4 38.4 6.4 64v0z"  horiz-adv-x="1024" />

    
    <glyph glyph-name="yitingzhi" unicode="&#58993;" d="M512 844.8c256 0 460.8-204.8 460.8-460.8s-204.8-460.8-460.8-460.8-460.8 204.8-460.8 460.8 204.8 460.8 460.8 460.8M512 896c-281.6 0-512-230.4-512-512s230.4-512 512-512 512 230.4 512 512-230.4 512-512 512v0 0zM742.4 198.4c0-19.2-12.8-32-32-32h-396.8c-19.2 0-32 12.8-32 32v396.8c0 19.2 12.8 32 32 32h403.2c19.2 0 32-12.8 32-32v-396.8h-6.4z"  horiz-adv-x="1024" />

    
    <glyph glyph-name="clouddownload" unicode="&#59852;" d="M839.521 171.143c17.515-17.312 17.515-45.446 0-62.787l-134.563-133.225c-8.408-8.321-19.843-13.006-31.713-13.006-11.9 0-23.305 4.685-31.714 13.006l-134.563 133.225c-17.543 17.341-17.543 45.475 0 62.787 17.515 17.369 45.911 17.369 63.428 0l57.987-57.404v292.462c0 24.528 20.075 44.428 44.865 44.428 24.759 0 44.835-19.9 44.835-44.428v-292.462l58.014 57.404c17.487 17.369 45.912 17.369 63.428 0zM762.943 805.875c-175.762 0-325.163-111.229-380.618-266.45h-23.043c0 0 0 0-0.029 0-148.616 0-269.127-119.288-269.127-266.45 0-147.162 120.51-266.45 269.127-266.45 0.32 0 0.582 0 0.873 0h122.81l-39.425 39.017c-12.803 12.715-22.752 27.553-29.56 44.137-0.757 1.891-1.483 3.753-2.153 5.675h-52.545c-24.759 0-48.355 4.975-69.827 13.937-64.416 27-109.6 90.135-109.6 163.688 0 98.107 80.361 177.653 179.428 177.653h93.045c21.791 150.594 152.487 266.422 310.646 266.422 173.406 0 313.991-139.16 313.991-310.85 0-105.818-53.418-199.3-135.029-255.453 0.291-3.637 0.466-7.303 0.466-10.998 0-17.253-3.316-34.1-9.863-50.072-6.809-16.584-16.729-31.423-29.56-44.137l-21.85-21.618c165.316 50.014 285.536 202.268 285.536 382.278 0 220.743-180.738 399.676-403.69 399.676z"  horiz-adv-x="1307" />

    
    <glyph glyph-name="sanshuxian" unicode="&#59111;" d="M191.348026 705.907571l65.119113 0 0-642.10929-65.119113 0 0 642.10929ZM475.953016 705.907571l65.119113 0 0-642.10929-65.119113 0 0 642.10929ZM767.981069 705.907571l65.119113 0 0-642.10929-65.119113 0 0 642.10929Z"  horiz-adv-x="1024" />

    
    <glyph glyph-name="sanhengxian" unicode="&#59112;" d="M191.169971 129.096473l642.10929 0 0-65.119113-642.10929 0 0 65.119113ZM191.169971 413.701462l642.10929 0 0-65.119113-642.10929 0 0 65.119113ZM191.169971 705.729515l642.10929 0 0-65.119113-642.10929 0 0 65.119113Z"  horiz-adv-x="1024" />

    
    <glyph glyph-name="vip-www" unicode="&#58903;" d="M506.384 893.153h-0.631c-0.197 0-0.392-0.039-0.591-0.039-278.18-0.63-503.446-226.313-503.446-504.629 0-278.24 225.265-503.96 503.447-504.63 0.198 0 0.393-0.039 0.591-0.039h0.631c278.673 0 504.668 225.997 504.668 504.67 0 278.709-225.994 504.667-504.669 504.667v0zM526.571 591.141c53.503 1.458 105.567 8.514 155.7 20.738 15.118-59.496 24.483-128.061 25.964-203.209h-181.664v182.47zM526.571 631.512v218.073c54.428-15.061 109.55-87.607 144.7-198.871-46.624-11.237-95-17.782-144.7-19.202v0zM486.197 850.060v-218.547c-50.111 1.419-98.882 8.084-145.861 19.518 35.427 111.933 91.078 184.754 145.861 199.029v0zM486.197 591.179v-182.508h-182.922c1.479 75.267 10.883 143.908 26.003 203.445 50.524-12.341 102.983-19.517 156.919-20.937v0zM262.646 408.671h-220.043c4.455 103.773 43.114 198.871 105.015 274.177 44.947-24.76 92.634-45.024 142.589-60.167-16.304-64.384-26.083-136.97-27.56-214.010v0zM262.646 368.298c1.478-77.001 11.256-149.587 27.561-213.969-49.935-15.183-97.642-35.446-142.589-60.207-61.902 75.306-100.559 170.406-105.015 274.177l220.043-0.001zM303.275 368.298h182.922v-182.271c-53.936-1.42-106.415-8.635-156.939-21.016-15.121 59.494-24.505 128.098-25.984 203.287v0zM486.197 145.691v-218.783c-54.823 14.312-110.513 87.213-145.92 199.265 46.999 11.436 95.789 18.099 145.92 19.518v0zM526.571-72.617v218.308c49.718-1.419 98.093-8.003 144.738-19.24-35.131-111.342-90.287-184.007-144.738-199.068v0zM526.571 186.027v182.271h181.663c-1.481-75.069-10.844-143.554-25.903-203.011-50.171 12.222-102.236 19.321-155.76 20.741v0zM748.864 368.298h221.303c-4.453-103.771-43.093-198.832-104.996-274.137-45.316 24.918-93.403 45.341-143.787 60.559 16.262 64.304 26 136.734 27.48 213.578v0zM748.864 408.671c-1.479 76.962-11.237 149.43-27.52 213.774 50.348 15.219 98.429 35.603 143.711 60.521 61.959-75.306 100.636-170.443 105.112-274.296l-221.303 0.001zM837.238 713.798c-40.158-21.368-82.559-39.033-126.836-52.439-23.6 75.939-56.738 137.918-95.908 178.607 85.953-20.622 162.697-65.095 222.744-126.168v0zM396.677 839.572c-38.974-40.609-71.955-102.313-95.472-177.857-43.844 13.366-85.873 30.872-125.674 52.084 59.653 60.679 135.826 105.034 221.146 125.773v0zM175.393 63.328c39.84 21.252 81.89 38.756 125.773 52.123 23.517-75.62 56.499-137.402 95.511-178.053-85.378 20.779-161.592 65.173-221.285 125.93v0zM614.474-62.959c39.232 40.688 72.369 102.708 95.985 178.765 44.298-13.446 86.72-31.071 126.897-52.517-60.047-61.114-136.851-105.665-222.882-126.247v0z"  horiz-adv-x="1024" />

    
    <glyph glyph-name="kongjianbujumianban" unicode="&#59328;" d="M896 768l0-832L64-64 64 768 896 768M960 832 0 832l0-960 960 0L960 832 960 832zM128 704l320 0 0-320-320 0 0 320ZM128 320l320 0 0-320-320 0 0 320ZM512 704l320 0 0-320-320 0 0 320ZM512 320l320 0 0-320-320 0 0 320Z"  horiz-adv-x="1024" />

    
    <glyph glyph-name="cuowu" unicode="&#58998;" d="M510.428202 834.390827c-247.237941 0-447.666786-200.423729-447.666786-447.663716s200.428845-447.666786 447.666786-447.666786c247.233847 0 447.663716 200.427822 447.663716 447.666786S757.667166 834.390827 510.428202 834.390827L510.428202 834.390827zM510.428202 3.011846c-211.921597 0-383.715265 171.793668-383.715265 383.715265 0 211.918527 171.793668 383.712195 383.715265 383.712195 211.918527 0 383.712195-171.793668 383.712195-383.712195C894.139374 174.805514 722.345706 3.011846 510.428202 3.011846L510.428202 3.011846zM510.428202 3.011846M691.288362 564.862207c-10.793834 10.797927-26.991748 10.797927-37.789675 0L510.428202 421.790698 367.356692 564.862207c-10.797927 10.797927-26.995841 10.797927-37.793768 0-10.797927-10.797927-10.797927-26.995841 0-37.793768l143.07151-143.07151L329.563948 240.927467c-10.797927-10.797927-10.797927-26.995841 0-37.789675 5.398964-5.398964 10.797927-8.098445 18.897396-8.098445 8.098445 0 13.497409 2.698458 18.896372 8.098445l143.07151 143.070486 143.070486-143.070486c5.398964-5.398964 13.497409-8.098445 18.897396-8.098445 5.398964 0 13.494339 2.698458 18.892279 8.098445 10.797927 10.793834 10.797927 26.991748 0 37.789675L548.217876 383.997953 691.288362 527.069463C702.086289 537.86739 702.086289 554.06428 691.288362 564.862207L691.288362 564.862207zM691.288362 564.862207"  horiz-adv-x="1024" />

    
    <glyph glyph-name="tomcat" unicode="&#59037;" d="M517.071 597.072c1.307-35.708 6.17-68.427 14.018-98.528 0 0 71.418-170.882 207.901-215.376 39.635 27.855 74.034 63.937 100.582 106.939l6.732 11.22c2.991 5.233 5.795 10.471 8.416 15.703l5.421 11.22c23.744 51.225 36.831 110.117 35.521 174.433h0.188c0 17.57-5.607 92.166-15.703 112.546-27.298-10.471-77.217-44.119-88.431-78.524-54.034 8.042-114.794 7.106-168.078-2.055-8.973 37.015-53.66 65.436-87.309 81.326-14.21-23.933-20.566-79.647-18.886-119.094-0.188 0.375-0.37 0.188-0.37 0.188v0zM517.071 597.072zM950.069 113.781c-17.201 19.26-50.854 28.234-78.897 27.673-12.9 15.328-72.167 78.897-108.063 116.66l-18.511-12.338-16.078 5.238c-149.566 48.609-225.472 226.97-228.65 234.445l-0.935 2.246-0.375 1.493c-107.125-33.842-217.622-102.831-281.934-169.946l-10.846-11.407c-5.233-5.607-10.096-11.027-14.954-16.452-76.094-84.692-131.62-175.926-131.62-190.882v-7.855h100.208l-1.68 9.347c-5.607 29.915 5.607 67.308 28.79 95.163 14.585 17.575 38.512 37.58 76.282 46.741 31.038 11.214 112.738 2.242 112.738 2.242 161.529-14.394 315.957-79.459 490.393-170.508h95.911l1.31 6.356c1.681 8.604-3.179 20.754-13.087 31.783v0zM950.069 113.781zM448.827 172.303c-11.776 7.663-29.914 8.786-46.553 2.991-10.278 11.402-17.571 25.238-22.061 41.503-1.492 0.187-3.178 0.374-4.671 0.561 0 0-50.107 5.607-86.939 2.617 28.605-25.425 61.883-51.6 98.154-77.025h74.413v7.851c0 8.603-4.489 16.265-12.343 21.503v0zM448.827 172.303zM187.271 334.581l6.918 7.292c1.307 1.499 2.804 2.991 4.301 4.302-20.379 32.906-29.351 60.759-32.348 82.819-4.859 35.152 3.552 67.494 24.307 93.482 32.718 40.571 79.084 43.375 126.757 35.334-0.932-7.481 0-14.768 2.991-19.257 12.53-18.694 80.395-25.239 120.967-7.106-29.915 41.877-90.304 62.257-107.131 54.034-5.607-2.804-9.723-7.667-12.526-13.461-16.452 2.991-32.906 5.233-44.868 5.046-42.065-0.375-74.226-14.955-98.341-44.869-23.557-29.351-33.28-65.81-27.673-105.445 4.116-29.351 16.453-60.202 36.645-92.17v0zM187.271 334.581z"  horiz-adv-x="1024" />

    
    <glyph glyph-name="qita" unicode="&#58956;" d="M209.430747 383.941825C209.430747 422.500352 240.682468 453.752074 279.240995 453.752074 317.799523 453.752074 349.051244 422.500352 349.051244 383.941825 349.051244 345.383297 317.799523 314.131576 279.240995 314.131576 240.682468 314.131576 209.430747 345.383297 209.430747 383.941825ZM442.131576 383.941825C442.131576 422.500352 473.383297 453.752074 511.941825 453.752074 550.500352 453.752074 581.752074 422.500352 581.752074 383.941825 581.752074 345.383297 550.500352 314.131576 511.941825 314.131576 473.383297 314.131576 442.131576 345.383297 442.131576 383.941825ZM744.642654 314.131576C706.084127 314.131576 674.832405 345.383297 674.832405 383.941825 674.832405 422.500352 706.084127 453.752074 744.642654 453.752074 783.201182 453.752074 814.452903 422.500352 814.452903 383.941825 814.452903 345.383297 783.201182 314.131576 744.642654 314.131576ZM979.973003 427.3638C954.259561 427.3638 933.432837 448.213794 933.432837 473.903965L933.013976 477.9995 920.029269 477.9995C877.561368 664.765186 710.807954 804.292603 511.197182 804.292603 279.450426 804.292603 91.591046 616.433223 91.591046 384.686467 91.591046 152.962981 279.450426-34.919668 511.197182-34.919668 693.983684-34.919668 849.055516 82.175389 906.579161 245.298671L909.743893 245.298671 909.720623 245.531371C909.720623 271.244813 930.570617 292.071537 956.260789 292.071537 981.97423 292.071537 1002.800954 271.244813 1002.800954 245.531371L1002.824225 245.298671 1004.33678 245.298671C1004.010999 244.088626 1003.522327 242.925122 1003.173276 241.738348L1003.243086 241.203136C1003.243086 230.871219 999.752574 221.400295 994.028133 213.674628 923.799023 14.785229 734.822679-128 511.872015-128 229.117237-128-0.11635 101.233587-0.11635 384.011635-0.11635 666.789683 229.117237 896 511.872015 896 748.761459 896 947.534507 734.947756 1005.942416 516.488217 1018.089399 508.087717 1026.071037 494.102397 1026.071037 478.232201L1026.513169 473.903965C1026.513169 448.213794 1005.663175 427.3638 979.973003 427.3638Z"  horiz-adv-x="1027" />

    
    <glyph glyph-name="zhongzhuan" unicode="&#58899;" d="M659.750065 550.494988l208.611202 0-136.581702-81.603553c-9.486048-5.66707-12.580526-17.950837-6.91448-27.436886 3.747347-6.27082 10.384511-9.749038 17.195637-9.749038 3.491521 0 7.028067 0.914836 10.242272 2.835581l198.816115 118.786407c6.045693 3.611248 9.745968 10.134825 9.745968 17.175171 0 7.040347-3.700275 13.563924-9.745968 17.175171l-198.816115 118.785384c-9.490142 5.669116-21.769816 2.572592-27.437909-6.913457-5.666046-9.486048-2.571568-21.769816 6.91448-27.436886l136.581702-81.602529L659.750065 590.510354c-114.183576 0-207.078289-92.895737-207.078289-207.080336 0-92.119047-74.944899-167.063947-167.063947-167.063947L84.531232 216.366072c-11.04966 0-20.007683-8.958022-20.007683-20.007683s8.958022-20.007683 20.007683-20.007683l201.076598 0c114.184599 0 207.079312 92.894713 207.079312 207.079312C492.687142 475.550089 567.631018 550.494988 659.750065 550.494988zM84.531232 550.494988l201.076598 0c39.496549 0 77.818343-14.034645 107.906615-39.520085 3.76065-3.183506 8.352225-4.739954 12.922311-4.739954 5.678326 0 11.319813 2.403746 15.276938 7.076162 7.141654 8.432043 6.094812 21.056572-2.336208 28.199249-37.306674 31.597649-84.813664 48.999994-133.769656 48.999994L84.531232 590.510354c-11.04966 0-20.007683-8.958022-20.007683-20.007683C64.523549 559.451988 73.481571 550.494988 84.531232 550.494988zM951.119109 213.532537 752.302995 332.322014c-9.490142 5.666046-21.769816 2.571568-27.437909-6.91448-5.666046-9.486048-2.571568-21.769816 6.91448-27.437909l136.581702-81.603553L659.750065 216.366072c-40.956807 0-80.354096 14.966876-110.932532 42.144866-8.256034 7.339152-20.903076 6.596232-28.246321-1.662873-7.340175-8.259104-6.596232-20.906146 1.663896-28.247344 37.910425-33.694403 86.74669-52.250014 137.514957-52.250014l208.610178 0-136.580678-81.601506c-9.486048-5.668093-12.580526-17.951861-6.91448-27.437909 3.747347-6.269797 10.384511-9.750061 17.195637-9.750061 3.491521 0 7.028067 0.914836 10.242272 2.835581l198.816115 118.785384c6.045693 3.612271 9.745968 10.134825 9.745968 17.176195C960.865077 203.399759 957.163779 209.922313 951.119109 213.532537z"  horiz-adv-x="1024" />

    
    <glyph glyph-name="kulian" unicode="&#58906;" d="M513.38044-24.456762c225.611387 0 409.153634 183.54327 409.153634 409.154657S738.991828 793.851529 513.38044 793.851529 104.225783 610.308259 104.225783 384.696872 287.769053-24.456762 513.38044-24.456762M513.38044-61.658036c-246.514463 0-446.354907 199.840444-446.354907 446.354907 0 246.514463 199.840444 446.354907 446.354907 446.354907s446.354907-199.840444 446.354907-446.354907C959.734324 138.182408 759.894903-61.658036 513.38044-61.658036L513.38044-61.658036 513.38044-61.658036zM366.146121 446.764486c-21.406542 0-38.736233 17.621333-38.736233 39.401382l0 7.884574c0 21.769816 17.32969 39.391149 38.736233 39.391149 21.407566 0 38.736233-17.621333 38.736233-39.391149l0-7.884574C404.882354 464.415494 387.53322 446.764486 366.146121 446.764486L366.146121 446.764486 366.146121 446.764486 366.146121 446.764486zM666.775063 446.764486c-21.3871 0-38.736233 17.621333-38.736233 39.401382l0 7.884574c0 21.769816 17.349133 39.391149 38.736233 39.391149 21.3871 0 38.746466-17.621333 38.746466-39.391149l0-7.884574C705.521528 464.415494 688.162162 446.764486 666.775063 446.764486L666.775063 446.764486 666.775063 446.764486 666.775063 446.764486zM313.946248 186.664609c42.955324 72.478731 122.110105 117.498064 206.571752 117.498064 83.827197 0 160.161746-42.451858 204.194612-113.571638 5.40715-8.740058 2.708692-20.199041-6.021134-25.606191-8.740058-5.40715-20.199041-2.708692-25.606191 6.021134-35.644825 57.576323-99.595322 95.960539-172.567287 95.960539-74.361615 0-139.358955-39.863916-174.581154-99.272981-5.236258-8.831132-16.645099-11.750625-25.475208-6.514367C311.620273 166.414403 308.700781 177.823244 313.946248 186.664609L313.946248 186.664609 313.946248 186.664609z"  horiz-adv-x="1024" />

    
    <glyph glyph-name="xiaolian" unicode="&#58888;" d="M512-72.448c-251.68 0-456.416 204.768-456.416 456.448 0 251.648 204.736 456.416 456.416 456.416 251.68 0 456.448-204.736 456.448-456.416-0.032-251.68-204.768-456.448-456.448-456.448zM512 792.416c-225.184 0-408.416-183.232-408.416-408.416 0-225.216 183.232-408.448 408.416-408.448 225.216 0 408.448 183.232 408.448 408.448-0.032 225.184-183.232 408.416-408.448 408.416zM512 114.976c-89.472 0-174.176 39.2-232.48 107.52-8.64 10.048-7.392 25.216 2.688 33.824 9.984 8.64 25.184 7.392 33.824-2.688 49.152-57.6 120.608-90.656 195.968-90.656 75.392 0 146.848 33.056 196 90.656 8.672 10.080 23.808 11.328 33.824 2.688 10.080-8.608 11.328-23.744 2.688-33.824-58.304-68.32-143.040-107.52-232.512-107.52zM368.064 390.976h-5.824c-21.312 0-38.624 17.312-38.624 38.624v69.152c0 21.28 17.312 38.592 38.624 38.592h5.824c21.28 0 38.592-17.312 38.592-38.592v-69.152c0-21.312-17.312-38.624-38.592-38.624zM661.76 390.976h-5.824c-21.28 0-38.592 17.312-38.592 38.624v69.152c0 21.28 17.312 38.592 38.592 38.592h5.824c21.28 0 38.592-17.312 38.592-38.592v-69.152c0-21.312-17.312-38.624-38.592-38.624z"  horiz-adv-x="1024" />

    
    <glyph glyph-name="qitafuwu" unicode="&#59117;" d="M862.293333 896H161.706667C107.797333 896 64 851.925333 64 797.76v-871.658667c0-18.389333 9.173333-35.370667 24.554667-45.376 15.338667-9.962667 34.432-11.477333 52.032-3.669333l371.392 178.837333 371.434666-178.837333 0.938667-0.426667a53.717333 53.717333 0 0 1 51.093333 4.096A53.952 53.952 0 0 1 960-73.898667V797.76C960 851.946667 916.181333 896 862.293333 896zM896-57.962667l-362.261333 174.4c-13.824 6.122667-29.653333 6.08-44.416-0.448L128-57.984V797.76C128 816.64 143.104 832 161.706667 832h700.586666c18.581333 0 33.706667-15.36 33.706667-34.24v-855.722667zM592.213333 554.453333l-79.914666 170.538667-80.405334-170.282667-176.213333-26.602666 127.210667-130.496-30.634667-185.877334 159.445333 87.637334 159.210667-88.128-30.122667 185.984 127.573334 130.112-176.149334 27.114666z m11.733334-248.064l-92.16 51.029334-92.309334-50.773334 17.792 108.032-76.010666 77.973334 105.109333 15.872 45.76 96.96 45.504-97.109334 105.066667-16.170666-76.245334-77.76 17.493334-108.053334z"  horiz-adv-x="1024" />

    
    <glyph glyph-name="wenhao" unicode="&#58917;" d="M510.977 827.049c-244.1 0-442.064-197.964-442.064-442.065S266.876-57.08 510.977-57.08 953.04 140.884 953.04 384.984 755.077 827.05 510.977 827.05z m-2.843-751.407c-35.976 0-65.248 28.657-65.248 63.923 0 35.261 29.167 63.922 65.248 63.922 35.97 0 65.24-28.661 65.24-63.922 0-35.266-29.166-63.923-65.24-63.923zM683.33 437.319c-12.801-20.12-39.94-47.456-81.602-82.112-21.546-17.884-34.958-32.314-40.143-43.29-5.18-10.872-7.621-30.388-7.116-58.539h-92.88c-0.204 13.314-0.406 21.446-0.406 24.395 0 30.079 4.977 54.771 14.936 74.182 9.958 19.411 29.876 41.26 59.654 65.446 29.778 24.289 47.66 40.142 53.457 47.66 8.942 11.889 13.51 25 13.51 39.23 0 19.815-8.022 36.784-23.877 51.01-15.853 14.127-37.399 21.243-64.328 21.243-26.017 0-47.766-7.419-65.243-22.156-17.48-14.732-32.52-47.255-36.079-67.376-3.354-19.005-94.916-27.034-93.8 11.483 1.117 38.516 21.14 80.282 55.488 110.565 34.352 30.284 79.472 45.428 135.261 45.428 58.743 0 105.385-15.347 140.14-46.033 34.755-30.69 52.034-66.362 52.034-107.111 0.098-22.56-6.303-43.902-19.006-64.025z m0 0"  horiz-adv-x="1024" />

    
    <glyph glyph-name="shuaxin" unicode="&#58934;" d="M962.074 405.446L647.271 540.362l125.831 89.881c-65.56 69.108-157.968 112.493-260.747 112.493-174.244 0-319.503-123.884-352.634-288.369l-83.949 34.777C123.56 686.175 300.628 832.68 512.355 832.68c132.973 0 252.063-58.09 334.393-149.833l115.326 82.375v-359.776z m-710.47-269.773c65.556-69.108 157.973-112.488 260.752-112.488 174.918 0 320.546 124.873 352.931 290.307l83.868-35.874c-47.481-197.458-224.77-344.377-436.799-344.377-132.973 0-252.068 58.086-334.398 149.828l-115.322-82.37V360.475L377.44 225.559l-125.836-89.886z"  horiz-adv-x="1024" />

    
    <glyph glyph-name="tomcat1" unicode="&#58916;" d="M703.146667 667.648c0-47.786667 6.826667-95.573333 20.48-143.36 0 0 102.4-245.76 300.373333-307.2 54.613333 40.96 109.226667 88.746667 143.36 150.186667l6.826667 13.653333c6.826667 6.826667 6.826667 13.653333 13.653333 20.48l6.826667 13.653333c34.133333 75.093333 54.613333 157.013333 47.786666 252.586667 0 27.306667-6.826667 129.706667-20.48 163.84-40.96-13.653333-109.226667-61.44-129.706666-109.226667-75.093333 13.653333-163.84 6.826667-238.933334 0-13.653333 54.613333-75.093333 95.573333-122.88 116.053334-20.48-34.133333-27.306667-116.053333-27.306666-170.666667zM1324.373333-28.672c-27.306667 27.306667-75.093333 40.96-116.053333 40.96-20.48 20.48-102.4 116.053333-157.013333 163.84l-27.306667-20.48-20.48 6.826667c-211.626667 68.266667-320.853333 327.68-327.68 334.506666-150.186667-34.133333-307.2-129.706667-402.773333-225.28l-13.653334-20.48-20.48-20.48c-109.226667-122.88-191.146667-252.586667-191.146666-273.066666v-13.653334h143.36v13.653334c-6.826667 40.96 6.826667 95.573333 40.96 136.533333 20.48 27.306667 54.613333 54.613333 109.226666 68.266667 47.786667 13.653333 163.84 0 163.84 0 232.106667-20.48 450.56-116.053333 703.146667-245.76h136.533333v6.826666c0 20.48-6.826667 34.133333-20.48 47.786667zM607.573333 60.074667c-13.653333 13.653333-40.96 13.653333-68.266666 6.826666-13.653333 13.653333-27.306667 34.133333-34.133334 61.44h-6.826666s-75.093333 6.826667-122.88 6.826667c40.96-34.133333 88.746667-75.093333 143.36-109.226667h109.226666v13.653334s-6.826667 13.653333-20.48 20.48zM232.106667 292.181333l6.826666 13.653334 6.826667 6.826666c-27.306667 40.96-40.96 81.92-40.96 116.053334-6.826667 47.786667 0 95.573333 34.133333 129.706666 47.786667 61.44 109.226667 61.44 177.493334 54.613334 0-13.653333 0-20.48 6.826666-27.306667 20.48-27.306667 116.053333-40.96 170.666667-13.653333-40.96 61.44-129.706667 88.746667-150.186667 75.093333-6.826667 0-13.653333-6.826667-20.48-13.653333-20.48 0-47.786667 6.826667-61.44 6.826666-61.44 0-109.226667-27.306667-143.36-68.266666s-47.786667-95.573333-40.96-150.186667c6.826667-40.96 27.306667-88.746667 54.613334-129.706667z"  horiz-adv-x="1365" />

    
    <glyph glyph-name="wangzhan" unicode="&#58927;" d="M1011.2 380s0 0.8 0 0c0 0.8 0 0.8 0 0 0 277.6-224.8 502.4-501.6 502.4C232.8 883.2 7.2 657.6 7.2 380.8v-0.8c0-136.8 56-261.6 145.6-352 0.8-1.6 1.6-3.2 3.2-4.8 94.4-93.6 220-145.6 352.8-145.6s258.4 52 352.8 145.6c1.6 1.6 2.4 3.2 3.2 4.8 90.4 90.4 146.4 215.2 146.4 352zM170.4 694.4c31.2-28.8 64.8-52.8 101.6-72-19.2-65.6-30.4-141.6-32-222.4H48c4.8 113.6 50.4 216.8 122.4 294.4zM489.6 840.8v-237.6c-58.4 2.4-115.2 16-167.2 39.2C360 752 420.8 828 489.6 840.8zM284.8 660.8c-30.4 16.8-59.2 37.6-85.6 61.6 52.8 48 114.4 82.4 181.6 101.6-39.2-38.4-72-94.4-96-163.2z m204.8-97.6V400H280c1.6 73.6 12 142.4 29.6 204 56.8-24 116.8-38.4 180-40.8z m0-203.2v-163.2c-62.4-2.4-123.2-16-179.2-40.8-17.6 61.6-28 131.2-30.4 204h209.6z m0-203.2v-236c-68 12.8-128.8 88-167.2 196.8 52 24 108.8 36.8 167.2 39.2z m-108-219.2c-68 20-130.4 54.4-181.6 101.6 26.4 24 55.2 44 84.8 60.8 24.8-68.8 57.6-124 96.8-162.4z m255.2 0c39.2 38.4 72 94.4 96.8 162.4 30.4-16.8 59.2-37.6 84.8-60.8-51.2-47.2-112.8-82.4-181.6-101.6z m-107.2-16.8V156.8c58.4-2.4 115.2-16 167.2-39.2-38.4-108-99.2-184-167.2-196.8z m0 276V360h208.8c-1.6-73.6-12-142.4-29.6-204-56 24.8-116.8 38.4-179.2 40.8z m0 203.2V563.2c62.4 2.4 123.2 16.8 180 40.8 17.6-61.6 28-130.4 29.6-204H529.6z m0 203.2V840.8C597.6 828 658.4 752 696.8 642.4c-52-23.2-108.8-36.8-167.2-39.2zM637.6 824c67.2-19.2 128.8-53.6 181.6-101.6-26.4-24-55.2-44-85.6-61.6-24 68.8-56.8 124.8-96 163.2zM240 360c1.6-80.8 12.8-156 32-221.6-36-19.2-70.4-43.2-100.8-72C99.2 144.8 52.8 247.2 48 360h192z m607.2-293.6c-31.2 28-64.8 52-100.8 72 19.2 65.6 30.4 141.6 32 221.6h192c-4.8-112.8-50.4-215.2-123.2-293.6zM778.4 400c-1.6 80.8-12.8 156-32 222.4 36 19.2 70.4 44 101.6 72 72-78.4 118.4-180.8 122.4-294.4h-192z"  horiz-adv-x="1024" />

    
    <glyph glyph-name="yonghu" unicode="&#58931;" d="M962.421249-49.040028c0-13.566775-3.727505-26.092534-9.704945-37.207887l-0.402974-2.115611h-0.738785a78.008954 78.008954 0 0 0-67.531643-39.357079c-2.921558 0-5.540886-0.235068-8.328119 0.067162-3.693924-0.705204-7.488591-0.067162-11.417582-0.067162H159.630867c-3.895411 0-7.690078-0.638041-11.384001 0.067162-2.820815-0.30223-5.440142-0.067162-8.328119-0.067162a77.908211 77.908211 0 0 0-67.531643 39.357079H71.614738c-0.167906 0.671623-0.201487 1.410407-0.402974 2.115611a78.244022 78.244022 0 0 0-9.671364 37.207887c0 5.608048-1.544732 11.04819-0.402973 16.387589-0.772366 9.301972 0.402974 18.570362 0.402973 28.040239 0 196.65107 155.816421 356.027091 348.068364 356.027091h204.744121c192.218361 0 348.068364-159.376021 348.068364-356.027091 0-9.503458 1.108177-18.771849 0.335811-28.040239 1.141758-5.339399-0.335811-10.779541-0.335811-16.387589zM511.964034 372.638162c-141.342956 0-255.921756 117.164546-255.921756 261.69771C256.042278 778.835454 370.621078 896 511.964034 896c141.376538 0 255.921756-117.164546 255.921756-261.69771 0.033581-144.499582-114.545218-261.664128-255.921756-261.664128z m0 0"  horiz-adv-x="1024" />

    
    <glyph glyph-name="mima" unicode="&#58880;" d="M847.990491-104.00768H173.54752c-82.715794 0-149.907749 56.798354-149.907749 126.727314V402.628023c0 69.8368 67.197806 126.635154 149.907749 126.635154h38.892983c-3.984823 15.791543-6.126446 32.059977-6.126446 48.710217V626.688c0 134.53312 136.291474 243.567177 304.458606 243.567177 168.107154 0 304.460069-109.034057 304.460068-243.567177v-48.714606c0-16.645851-2.147474-32.918674-6.126445-48.710217h38.887131c82.654354 0 149.912137-56.80128 149.912137-126.635154v-379.908389c-0.002926-69.930423-67.260709-126.727314-149.915063-126.727314zM449.881234 201.591954v-110.747063c0-26.8288 27.293989-48.714606 60.889966-48.714605s60.891429 21.885806 60.891429 48.714605v110.747063c36.923977 16.7424 62.076343 47.948069 62.076342 84.104046 0 53.853623-55.064869 97.42336-122.967771 97.42336-67.968731 0-123.032137-43.5712-123.032137-97.42336 0-36.155977 25.21088-67.361646 62.142171-84.104046z m243.562789 425.094583c0 80.727771-81.759086 146.143817-182.672823 146.143817-100.909349 0-182.677211-65.410194-182.677211-146.143817v-97.42336h365.350034v97.42336z m0 0"  horiz-adv-x="1024" />

    
    <glyph glyph-name="fuwushezhi" unicode="&#58992;" d="M568.3-4.5H183.4c-32.6 0-59.1 26.5-59.1 59.1V713.4c0 32.6 26.5 59.1 59.1 59.1H512V589c0-51.7 41.9-93.5 93.5-93.5h183.7c1.6-13.9 13.2-24.6 27.5-24.6s26 10.7 27.5 24.6h0.2v20.2c0 14.3-3.6 28.2-10.5 40.4-5 10.3-11.8 19.8-20.1 28.2L602.7 796.9c-7.7 7.8-16.7 14.3-26.3 19.2-12.8 7.7-27.6 11.9-42.8 11.9H183.4c-63.2 0-114.5-51.3-114.5-114.5v-658.8c0-63.1 51.3-114.5 114.5-114.5h384.9c15.3 0 27.7 12.4 27.7 27.7s-12.4 27.6-27.7 27.6z m37.2 555.4c-21 0-38.1 17.1-38.1 38.1V750.2l198.1-199.3h-160zM428.9 660H207.3c-15.3 0-27.7-12.4-27.7-27.7 0-15.3 12.4-27.7 27.7-27.7h221.6c15.3 0 27.7 12.4 27.7 27.7 0 15.3-12.3 27.7-27.7 27.7zM428.9 493.8H207.3c-15.3 0-27.7-12.4-27.7-27.7 0-15.3 12.4-27.7 27.7-27.7h221.6c15.3 0 27.7 12.4 27.7 27.7 0 15.3-12.3 27.7-27.7 27.7zM428.9 327.6H207.3c-15.3 0-27.7-12.4-27.7-27.7 0-15.3 12.4-27.7 27.7-27.7h221.6c15.3 0 27.7 12.4 27.7 27.7 0 15.3-12.3 27.7-27.7 27.7zM428.9 161.4H207.3c-15.3 0-27.7-12.4-27.7-27.7 0-15.3 12.4-27.7 27.7-27.7h221.6c15.3 0 27.7 12.4 27.7 27.7 0 15.3-12.3 27.7-27.7 27.7zM940.9 285.1h-43.3c-4 14.3-9.6 27.9-16.7 40.5l30.6 30.6c5.6 5.6 5.6 14.7 0 20.3l-49.3 49.3c-2.8 2.8-6.5 4.2-10.1 4.2-3.7 0-7.4-1.4-10.1-4.2l-30.6-30.6c-12.6 7.1-26.2 12.7-40.5 16.7v43.3c0 7.9-6.5 14.4-14.4 14.4h-69.8c-7.9 0-14.4-6.5-14.4-14.4V412c-14.3-4-27.9-9.6-40.5-16.7l-30.6 30.5c-2.8 2.8-6.5 4.2-10.1 4.2s-7.4-1.4-10.1-4.2l-49.3-49.3c-5.5-5.6-5.5-14.7 0-20.3l30.6-30.6c-7.1-12.6-12.7-26.2-16.7-40.5h-43.3c-7.9 0-14.4-6.5-14.4-14.4v-69.8c0-7.9 6.5-14.4 14.4-14.4h43.3c4-14.3 9.6-27.9 16.7-40.5l-30.6-30.5c-5.5-5.6-5.5-14.7 0-20.3l49.3-49.3c2.8-2.8 6.5-4.2 10.1-4.2 3.6 0 7.4 1.4 10.1 4.2l30.6 30.6c12.6-7.1 26.2-12.7 40.5-16.7v-43.3c0-7.9 6.5-14.4 14.4-14.4h69.8c7.9 0 14.4 6.5 14.4 14.4v43.3c14.3 4 27.9 9.6 40.5 16.7l30.6-30.6c2.8-2.8 6.5-4.2 10.1-4.2 3.7 0 7.4 1.4 10.1 4.2l49.3 49.3c5.6 5.6 5.6 14.7 0 20.3l-30.6 30.6c7.1 12.6 12.7 26.2 16.7 40.5h43.3c7.9 0 14.4 6.5 14.4 14.4v69.8c-0.1 7.8-6.5 14.3-14.4 14.3z m-96.6-83.7c-2.8-10-6.7-19.5-11.6-28.2l-17.6-31.1-31.1-17.6c-8.7-4.9-18.2-8.8-28.2-11.6l-34.4-9.5L687 113c-10 2.8-19.5 6.7-28.2 11.6l-31.1 17.6-17.6 31.1c-4.9 8.7-8.8 18.2-11.6 28.2l-9.5 34.3 9.6 34.4c2.8 10 6.7 19.5 11.6 28.2l17.6 31.1 31.1 17.6c8.7 4.9 18.2 8.8 28.2 11.6l34.4 9.6 34.4-9.6c10-2.8 19.5-6.7 28.2-11.6l31.1-17.6 17.6-31.1c4.9-8.7 8.8-18.2 11.6-28.2l9.6-34.4-9.7-34.4zM721.4 323.4c-48.4 0-87.7-39.2-87.7-87.7 0-48.4 39.2-87.7 87.7-87.7 48.4 0 87.7 39.2 87.7 87.7s-39.2 87.7-87.7 87.7z m0-119.8c-17.8 0-32.3 14.5-32.3 32.3s14.5 32.3 32.3 32.3c17.8 0 32.3-14.5 32.3-32.3s-14.4-32.3-32.3-32.3z"  horiz-adv-x="1024" />

    
    <glyph glyph-name="fuwuguanli" unicode="&#58881;" d="M947.801039 470.890976c-4.736884 25.097608-19.627013 41.322128-37.892005 41.322128-0.24457 0-0.490164 0-0.735757 0l-3.865028 0c-63.779605 0-115.717512 51.938929-115.717512 115.745141 0 21.068851 9.961886 44.098357 10.04375 44.316322 9.854439 22.158672 2.286066 49.379641-17.638729 63.262836l-1.116427 0.762363L669.597853 798.20058l-1.170662 0.490164c-6.614651 2.831488-13.82896 4.300956-21.505803 4.300956-15.841803 0-31.413454-6.314823-41.593304-16.823154-13.583366-14.100136-56.43022-50.522674-91.001597-50.522674-34.897811 0-78.016865 37.183877-91.654466 51.503001-10.235109 10.779507-25.8876 17.203824-41.893132 17.203824-7.540743 0-14.645558-1.415232-21.150716-4.192485l-1.170662-0.490164-115.254977-63.262836-1.116427-0.870834c-19.980054-13.883195-27.575032-41.049928-17.748223-63.262836 0.10847-0.217964 10.072403-23.24747 10.072403-44.316322 0-63.807235-51.938929-115.745141-115.718535-115.745141l-3.892657 0c-0.272199 0-0.544399 0-0.816598 0-18.210757 0-33.07428-16.278755-37.783535-41.322128-0.38067-2.01489-9.336646-49.706075-9.336646-87.271646s8.955976-85.257779 9.336646-87.216387c4.736884-25.152866 19.627013-41.431621 37.892005-41.431621 0.24457 0 0.462534 0.055259 0.708128 0.055259l3.892657 0c63.779605 0 115.718535-51.938929 115.718535-115.745141 0-21.069875-9.962909-44.152593-10.072403-44.317345-9.826809-22.103414-2.25946-49.324382 17.612123-63.317071l1.088798-0.707105 109.184725-61.084217 1.170662-0.490164c6.560416-2.885723 13.773701-4.41045 21.422915-4.41045 16.060791 0 31.659047 6.641257 41.812291 17.638729 12.766768 13.93743 57.382918 53.626361 93.043093 53.626361 35.931351 0 79.812767-39.470967 93.641727-54.715159 10.180873-11.161201 25.942859-17.857716 42.111097-17.857716 7.485485 0 14.591323 1.416256 21.042245 4.246721l1.197268 0.490164 113.186875 62.554708 1.087774 0.762363c19.953448 13.93743 27.548426 41.049928 17.693987 63.261812-0.081864 0.217964-10.04375 23.301705-10.04375 44.317345 0 63.807235 51.937906 115.745141 115.717512 115.745141l3.865028 0c0.24457 0 0.490164 0 0.735757 0 18.237363 0 33.155121 16.223496 37.892005 41.377386 0.38067 1.958608 9.336646 49.65184 9.336646 87.216387S948.181709 468.876086 947.801039 470.890976zM893.602649 310.50307899999996c-89.177042-6.043646-159.871127-80.521918-159.871127-171.222663 0-27.76639 9.55461-54.17076 13.31219-63.208601l-102.651938-56.730049c-8.057513 8.819876-68.734454 72.735581-134.718261 72.735581-66.283636 0-128.811738-65.930595-135.508253-70.502727l-97.289814 54.441936c6.424316 15.462157 13.393032 40.342824 13.393032 63.262836 0 90.701768-70.694085 165.179017-159.871127 171.222663-2.613524 14.69877-7.67582 48.181349-7.67582 73.116251 0 23.90034 4.682649 56.238862 7.67582 73.117274 89.177042 6.042623 159.871127 80.520895 159.871127 171.222663 0 27.602661-9.472745 53.789067-13.283538 63.262836l104.421234 57.32766 0.816598 0.054235c6.723122-7.02295 67.427692-68.815295 132.10576-68.815295 64.24214 0 124.56604 60.703547 130.308835 66.801429l2.721994 0.054235 99.657744-55.423287c-4.681626-11.759835-13.283538-36.857443-13.283538-63.262836 0-90.701768 70.694085-165.179017 159.871127-171.222663 2.994194-16.823154 7.676843-49.216935 7.676843-73.117274C901.279493 358.79289800000004 896.270409 325.47507199999995 893.602649 310.50307899999996zM510.05316 566.27437c-100.392478 0-182.084035-81.663928-182.084035-182.057429s81.691557-182.056406 182.084035-182.056406c100.420107 0 182.111664 81.663928 182.111664 182.056406S610.472244 566.27437 510.05316 566.27437zM510.05316 258.01975100000004c-69.605288 0-126.225843 56.620555-126.225843 126.198214 0 69.578682 56.620555 126.199237 126.225843 126.199237 69.606311 0 126.253472-56.620555 126.253472-126.199237C636.305609 314.640306 579.658448 258.01975100000004 510.05316 258.01975100000004z"  horiz-adv-x="1024" />

    
    <glyph glyph-name="yanzhengma" unicode="&#59234;" d="M1118.003262 896H203.259884C91.017624 896 0 804.3616 0 691.202956v-614.405912c0-113.099522 91.017624-204.797044 203.259884-204.797044h914.743378c112.330942 0 203.289444 91.6384 203.289445 204.797044V691.202956C1321.366608 804.3616 1230.275083 896 1118.003262 896zM318.665146 135.992494h-18.357241a19.894401 19.894401 0 0 0-19.894401 19.879621V485.711234a19.86484 19.86484 0 0 1-31.570906 16.081061q-11.336557-8.336138-23.412134-15.593308-15.65243-10.095004-32.236024-18.578947a19.909181 19.909181 0 0 0-28.954778 17.736465v16.406229a19.983083 19.983083 0 0 0 10.612318 17.588661 344.915114 344.915114 0 0 1 74.567053 53.386758q30.891009 29.294727 46.513878 57.081855a19.731817 19.731817 0 0 0 17.248712 9.991542h5.483523a19.894401 19.894401 0 0 0 19.879621-19.894401v-464.104156a19.879621 19.879621 0 0 0-19.879621-19.820499z m450.15147 0H497.10876a19.894401 19.894401 0 0 0-19.598793 23.323451 114.16371 114.16371 0 0 0 5.158355 19.46577q12.060796 33.99489 38.222081 66.777789t76.030311 75.98597q77.12406 67.117738 104.275631 106.285764t27.122011 74.138422a84.721179 84.721179 0 0 1-24.683247 61.737677 86.406143 86.406143 0 0 1-64.442488 25.126658q-41.917178 0-67.176859-26.604697c-13.198886-14.026587-21.224636-32.295146-24.210274-54.687432a19.805719 19.805719 0 0 0-21.815852-16.982665L506.967278 492.495432a19.86484 19.86484 0 0 0-17.499978 22.998282q9.54813 55.677718 43.498679 87.204284 40.09919 37.172674 107.542097 37.069211c45.42013 0 81.292129-13.302348 107.896826-40.040069s39.744461-59.801446 39.744461-99.324201a158.756138 158.756138 0 0 0-11.676506-59.121549q-11.602604-29.043461-38.635932-61.249924t-89.643048-88.150229q-52.29301-46.720804-67.176859-63.289617l-0.280828-0.310388c-11.484361-12.725913-2.246619-33.078506 14.898631-33.078507h173.181795a19.894401 19.894401 0 0 0 19.879621-19.894401v-19.406648a19.879621 19.879621 0 0 0-19.879621-19.909182z m342.993664 36.758823c-29.989405-30.610182-68.093243-45.671396-114.341075-45.671396-41.385084 0-76.030311 13.110203-103.46271 39.31583-22.761796 21.75673-37.276136 48.923081-43.764726 81.410372a19.86484 19.86484 0 0 0 16.760959 23.471255l20.130887 2.837834a19.805719 19.805719 0 0 0 21.978436-14.529121c6.828539-26.146505 16.923543-45.553153 30.225892-58.367748 16.066281-15.356822 35.576392-23.146086 58.545113-23.146087 27.447179 0 50.4159 10.035883 69.334796 30.107649s28.082736 44.961938 28.082735 74.640955a97.254947 97.254947 0 0 1-26.028261 69.955572 87.795499 87.795499 0 0 1-66.511742 27.639324 107.808144 107.808144 0 0 1-15.238579-1.197211A19.83528 19.83528 0 0 0 965.159279 401.256102l1.005066 8.557844a19.879621 19.879621 0 0 0 18.904115 17.426077 114.710584 114.710584 0 0 1 59.446717 20.24913c19.805719 13.716199 29.560774 34.822592 29.560775 63.3783a75.379974 75.379974 0 0 1-21.653268 56.313275 74.212324 74.212324 0 0 1-55.795961 22.022777 76.591966 76.591966 0 0 1-56.50542-22.52531q-17.736465-17.869488-25.540509-49.573419a19.83528 19.83528 0 0 0-22.968721-14.647363l-18.490265 3.502951a19.83528 19.83528 0 0 0-15.548967 24.579784q12.725913 47.090313 43.927311 75.261731 37.778669 34.098353 93.899799 34.098353a147.316118 147.316118 0 0 0 71.344929-17.618221c21.75673-11.82431 38.325544-27.757567 49.898586-48.124941a129.712677 129.712677 0 0 0 17.293053-64.723315 111.710166 111.710166 0 0 0-16.465351-59.121548 115.612188 115.612188 0 0 0-19.687476-23.308671 19.86484 19.86484 0 0 1 3.177784-31.910855 106.211862 106.211862 0 0 0 33.063726-29.871163C1149.396804 343.553471 1157.304311 316.608825 1157.304311 284.091973a153.390858 153.390858 0 0 0-45.538372-111.399777z"  horiz-adv-x="1321" />

    
    <glyph glyph-name="wangqia" unicode="&#58882;" d="M131.2 708.8V832H64v-896h67.2V81.6h67.2V-8h380.8v89.6h67.1V-8H848v89.6h112V708.8H131.2z m134.4-492.7H176v67.2h89.6v-67.2z m89.6 156.8H176v67.2h179.2v-67.2z m0 156.7H176v67.2h179.2v-67.2z m268.8-112H489.6V552H624v-134.4z m268.8 0H758.4V552h134.4v-134.4z"  horiz-adv-x="1024" />

    
    <glyph glyph-name="jiajian" unicode="&#58955;" d="M779.093333 422.4H544.085333v228.693333c0 17.749333-14.336 32.085333-32.085333 32.085334s-32.085333-14.336-32.085333-32.085334v-235.008h-228.693334c-17.578667 3.242667-34.474667-8.192-37.888-25.770666-0.341333-2.048-0.512-4.096-0.512-6.144-1.024-16.725333 11.605333-31.061333 28.330667-32.085334h232.277333v-228.693333c0-17.749333 14.336-32.085333 32.085334-32.085333s32.085333 14.336 32.085333 32.085333v228.693333h228.693333c16.725333-1.024 31.061333 11.605333 32.085334 28.330667V384c-0.170667 19.114667-0.170667 38.4-19.285334 38.4zM512 896C229.205333 896 0 666.794667 0 384s229.205333-512 512-512 512 229.205333 512 512C1023.146667 666.453333 794.453333 895.146667 512 896z m0-953.685333C268.117333-57.685333 70.485333 140.117333 70.485333 384S268.117333 825.514667 512 825.514667 953.685333 627.882667 953.685333 384c-0.512-243.712-197.973333-441.173333-441.685333-441.685333z"  horiz-adv-x="1024" />

    
    <glyph glyph-name="jiajian1" unicode="&#58954;" d="M512-128C229.205333-128 0 101.205333 0 384S229.205333 896 512 896s512-229.205333 512-512c-0.853333-282.453333-229.546667-511.146667-512-512z m0 953.685333C268.117333 825.685333 70.314667 627.882667 70.314667 384S268.117333-57.514667 512-57.514667 953.685333 140.117333 953.685333 384c-0.512 243.712-197.973333 441.173333-441.685333 441.685333zM778.752 358.4H245.418667c-17.749333 0-32.085333 14.336-32.085334 32.085333v4.266667c0 17.749333 14.336 32.085333 32.085334 32.085333h533.333333c17.749333 0 32.085333-14.336 32.085333-32.085333v-4.266667c-0.170667-17.749333-14.506667-32.085333-32.085333-32.085333z"  horiz-adv-x="1024" />

    
    <glyph glyph-name="xiugai" unicode="&#59002;" d="M743.906 829.741v-63.247H168.659v-768h638.494V320.753h66.259v-382.494h-768V829.74h638.494zM231.906 640H614.4v-63.247H231.906V640z m0-147.576H614.4v-63.248H231.906v63.248z m0-147.577h283.106V281.6H231.906v63.247z m0-150.588h192.753v-63.247H231.906v63.247z m412.612 150.588l246.964 358.4 66.26-45.176-246.966-358.4-78.305-42.165 12.047 87.341z"  horiz-adv-x="1024" />

    
    <glyph glyph-name="upload1" unicode="&#59265;" d="M1061.362162 565.275676C1021.232432 753.47027 859.32973 889.081081 664.216216 889.081081c-193.72973 0-357.016216-135.610811-398.52973-323.805405C119.005405 538.983784 6.918919 408.908108 6.918919 252.54054099999996c0-175.740541 139.762162-318.27027 312.735135-318.270271h218.637838c34.594595 0 62.27027 27.675676 62.27027 62.270271s-27.675676 62.27027-62.27027 62.27027H319.654054c-103.783784 0-188.194595 87.178378-188.194595 193.72973s84.410811 193.72973 188.194595 193.729729c31.827027 0 59.502703 24.908108 62.27027 56.735135 13.837838 149.448649 135.610811 262.918919 282.291892 262.918919 146.681081 0 268.454054-113.47027 280.908108-262.918919 2.767568-31.827027 30.443243-56.735135 62.270271-56.735135 105.167568 0 189.578378-87.178378 189.578378-193.729729s-84.410811-193.72973-188.194595-193.72973H790.140541c-24.908108 0-45.664865-15.221622-56.735136-35.978379V280.21621600000003l76.108109-77.491892c12.454054-12.454054 27.675676-19.372973 44.281081-19.372973 15.221622 0 31.827027 5.535135 42.897297 17.98919 24.908108 23.524324 24.908108 63.654054 1.383784 88.562162l-189.578379 193.729729c-11.07027 12.454054-27.675676 19.372973-44.281081 19.372973-16.605405 0-33.210811-6.918919-44.281081-19.372973l-189.578378-193.729729c-23.524324-24.908108-23.524324-63.654054 1.383784-88.562162 24.908108-23.524324 63.654054-23.524324 88.562162 1.383783l89.945946 91.32973V-58.810810999999944c0-34.594595 27.675676-62.27027 62.27027-62.27027s62.27027 27.675676 62.27027 62.27027v29.05946c9.686486-20.756757 31.827027-35.978378 56.735135-35.978379H1010.162162c172.972973 0 312.735135 142.52973 312.735135 318.270271-1.383784 156.367568-113.47027 286.443243-261.535135 312.735135z"  horiz-adv-x="1328" />

    
    <glyph glyph-name="fenliuqi" unicode="&#59359;" d="M880.128 77.824c-10.752-7.68-190.464-111.104-203.264-118.784-7.68-5.12-20.992 0-20.992 13.312V46.08H488.96L245.76 363.008H68.608v81.92h219.136C337.92 523.264 460.288 714.24 468.48 724.48H634.88V803.84c0 10.752 10.752 18.432 20.992 13.312 10.752-2.56 187.392-108.544 203.264-116.224 10.752-5.12 7.68-20.992 2.56-29.184-10.752-7.68-190.464-111.104-203.264-118.784-7.68-5.12-20.992 0-20.992 13.312v76.8l-126.976 1.536L337.92 379.392l193.024-251.904h126.976v81.92c0 10.752 10.752 18.432 20.992 13.312 10.752-2.56 187.392-108.544 203.264-116.224 10.752-5.12 8.192-20.992-2.048-28.672z"  horiz-adv-x="1024" />

    
    <glyph glyph-name="houtaifuwu" unicode="&#58900;" d="M1014.518519 165.736296c0 7.774815-5.783704 15.54963-13.558519 15.54963H816.45037c-7.774815 0-13.558519-5.783704-13.558518-15.54963v-60.207407H672.805926v-44.657778h475.780741v44.657778h-132.077037v60.207407m190.293333 541.677037H612.598519c-25.220741 0-44.657778-19.437037-44.657778-44.657777v-415.573334c0-25.220741 19.437037-44.657778 44.657778-44.657778h594.204444c25.220741 0 44.657778 19.437037 44.657778 44.657778V662.755556c0 25.315556-19.437037 44.657778-44.657778 44.657777z m-444.681482-417.469629h-81.54074V379.259259h79.644444v-89.315555h1.896296z m124.302223 0h-79.644445v161.185185h79.644445v-161.185185z m128.094815 0h-79.644445V596.764444h79.644445v-306.82074z m128.189629 0H1055.288889h7.774815-7.774815l7.774815 233.054815h79.644444v-233.054815z m0 0"  horiz-adv-x="1820" />

    


  </font>
</defs>
</svg>
